<?xml version="1.0" encoding="UTF-8" standalone="no"?>
<svg
   version="1.1"
   viewBox="0 0 24.489612 15.938637"
   id="svg2"
   sodipodi:docname="Flag_of_the_United_Kingdom_(3-5).svg"
   width="6.4795432mm"
   height="4.2170978mm"
   inkscape:version="1.3.2 (091e20e, 2023-11-25)"
   xmlns:inkscape="http://www.inkscape.org/namespaces/inkscape"
   xmlns:sodipodi="http://sodipodi.sourceforge.net/DTD/sodipodi-0.dtd"
   xmlns="http://www.w3.org/2000/svg"
   xmlns:svg="http://www.w3.org/2000/svg"
   xmlns:rdf="http://www.w3.org/1999/02/22-rdf-syntax-ns#"
   xmlns:cc="http://creativecommons.org/ns#"
   xmlns:dc="http://purl.org/dc/elements/1.1/">
  <defs
     id="defs2">
    <clipPath
       id="t">
      <path
         d="m 25,15 h 25 v 15 z m 0,0 V 30 H 0 Z m 0,0 H 0 V 0 Z m 0,0 V 0 h 25 z"
         id="path1-7" />
    </clipPath>
    <clipPath
       id="t-3">
      <path
         d="m 25,15 h 25 v 15 z m 0,0 V 30 H 0 Z m 0,0 H 0 V 0 Z m 0,0 V 0 h 25 z"
         id="path1-7-9" />
    </clipPath>
  </defs>
  <sodipodi:namedview
     id="namedview2"
     pagecolor="#ffffff"
     bordercolor="#000000"
     borderopacity="0.25"
     inkscape:showpageshadow="2"
     inkscape:pageopacity="0.0"
     inkscape:pagecheckerboard="0"
     inkscape:deskcolor="#d1d1d1"
     inkscape:zoom="16.181818"
     inkscape:cx="31.516854"
     inkscape:cy="-16.5"
     inkscape:window-width="2560"
     inkscape:window-height="1327"
     inkscape:window-x="1718"
     inkscape:window-y="25"
     inkscape:window-maximized="0"
     inkscape:current-layer="svg2"
     inkscape:document-units="mm" />
  <title
     id="title1">Flag of Norway</title>
  <metadata
     id="metadata2">
    <rdf:RDF>
      <cc:Work
         rdf:about="">
        <dc:title>Flag of Norway</dc:title>
      </cc:Work>
    </rdf:RDF>
  </metadata>
  <g
     id="g5"
     transform="matrix(0.45351133,0,0,0.45351133,0.90702266,1.1666483)">
    <path
       d="M 0,0 V 30 H 50 V 0 Z"
       fill="#012169"
       id="path2-9" />
    <path
       d="M 0,0 50,30 M 50,0 0,30"
       stroke="#ffffff"
       stroke-width="6"
       id="path3" />
    <path
       d="M 0,0 50,30 M 50,0 0,30"
       clip-path="url(#t)"
       stroke="#c8102e"
       stroke-width="4"
       id="path4" />
    <path
       d="M -1,11 H 21 V -1 h 8 v 12 h 22 v 8 H 29 V 31 H 21 V 19 H -1 Z"
       fill="#c8102e"
       stroke="#ffffff"
       stroke-width="2"
       id="path5" />
  </g>
</svg>
